<svg width="68" height="88" viewBox="0 0 68 88" fill="none" xmlns="http://www.w3.org/2000/svg">
<ellipse cx="34" cy="79" rx="4.5" ry="2" fill="url(#paint0_radial_5590_190594)"/>
<g filter="url(#filter0_d_5590_190594)">
<path fill-rule="evenodd" clip-rule="evenodd" d="M37.1972 76.452C36.873 77.9317 35.5445 78.9939 34.0065 79H33.9935C32.4555 78.9939 31.1269 77.9312 30.8027 76.4515C29.8387 72.0521 27.9519 67.8849 25.2676 64.2399L13.7908 48.6556C10.1695 44.262 8 38.6641 8 32.568C8 18.4472 19.6406 7 34 7C48.3594 7 60 18.4472 60 32.568C60 38.5888 57.8838 44.1235 54.3429 48.4921L42.7358 64.24C40.0493 67.8848 38.1614 72.0515 37.1972 76.452Z" fill="#FF3A3A"/>
<path fill-rule="evenodd" clip-rule="evenodd" d="M34.7068 29.2145C34.7068 29.5256 34.9597 29.7778 35.2716 29.7778H43.5594C43.9951 29.7778 44.2667 30.249 44.0474 30.6245L34.3558 47.2192C34.0655 47.7161 33.303 47.5108 33.303 46.9357V35.7934C33.303 35.4823 33.0502 35.2301 32.7382 35.2301H24.4406C24.0048 35.2301 23.7333 34.7588 23.9527 34.3833L33.6541 17.7805C33.9444 17.2836 34.7068 17.489 34.7068 18.0641V29.2145Z" fill="white"/>
</g>
<defs>
<filter id="filter0_d_5590_190594" x="0" y="0" width="68" height="88" filterUnits="userSpaceOnUse" color-interpolation-filters="sRGB">
<feFlood flood-opacity="0" result="BackgroundImageFix"/>
<feColorMatrix in="SourceAlpha" type="matrix" values="0 0 0 0 0 0 0 0 0 0 0 0 0 0 0 0 0 0 127 0" result="hardAlpha"/>
<feOffset dy="1"/>
<feGaussianBlur stdDeviation="4"/>
<feComposite in2="hardAlpha" operator="out"/>
<feColorMatrix type="matrix" values="0 0 0 0 0 0 0 0 0 0 0 0 0 0 0 0 0 0 0.25 0"/>
<feBlend mode="normal" in2="BackgroundImageFix" result="effect1_dropShadow_5590_190594"/>
<feBlend mode="normal" in="SourceGraphic" in2="effect1_dropShadow_5590_190594" result="shape"/>
</filter>
<radialGradient id="paint0_radial_5590_190594" cx="0" cy="0" r="1" gradientUnits="userSpaceOnUse" gradientTransform="translate(34 79) rotate(-180) scale(4.5 2)">
<stop stop-opacity="0.49"/>
<stop offset="1" stop-color="#AEAEAE" stop-opacity="0"/>
</radialGradient>
</defs>
</svg>
